<?xml version="1.0" encoding="utf-8"?>
<svg xmlns="http://www.w3.org/2000/svg" style="margin: auto; background: none; display: block; shape-rendering: auto;" width="286" height="108" preserveAspectRatio="xMidYMid">
<style type="text/css">
  text {
    text-anchor: middle; font-size: 80px; opacity: 0;
  }
</style>
<g style="transform-origin:143px 54px;transform:scale(1)">
<g transform="translate(143,54)">
  <g transform="translate(0,0)"><g class="path" style="opacity: 1; transform-origin: -97.31px -6.21428px; animation: 2.43902s linear -0.898955s infinite normal forwards running blink-5c0426aa-ffe9-4922-b23a-c84bac071a05;"><path d="M37.11-14.65L37.11-12.97L37.11-12.97Q37.11-10.12 35.96-7.62L35.96-7.62L35.96-7.62Q34.80-5.12 32.87-3.24L32.87-3.24L32.87-3.24Q30.94-1.37 28.38-0.29L28.38-0.29L28.38-0.29Q25.82 0.78 22.97 0.78L22.97 0.78L18.95 0.78L18.95 0.78Q16.09 0.78 13.54-0.29L13.54-0.29L13.54-0.29Q10.98-1.37 9.04-3.24L9.04-3.24L9.04-3.24Q7.11-5.12 5.96-7.62L5.96-7.62L5.96-7.62Q4.80-10.12 4.80-12.97L4.80-12.97L4.80-15.20L9.84-16.02L9.84-12.97L9.84-12.97Q9.84-11.09 10.61-9.47L10.61-9.47L10.61-9.47Q11.37-7.85 12.66-6.62L12.66-6.62L12.66-6.62Q13.95-5.39 15.64-4.69L15.64-4.69L15.64-4.69Q17.34-3.98 19.22-3.98L19.22-3.98L22.73-3.98L22.73-3.98Q24.61-3.98 26.29-4.69L26.29-4.69L26.29-4.69Q27.97-5.39 29.26-6.62L29.26-6.62L29.26-6.62Q30.55-7.85 31.31-9.47L31.31-9.47L31.31-9.47Q32.07-11.09 32.07-12.97L32.07-12.97L32.07-14.65L32.07-14.65Q32.07-17.54 30.94-19.45L30.94-19.45L30.94-19.45Q29.80-21.37 27.93-22.71L27.93-22.71L27.93-22.71Q26.05-24.06 23.69-25L23.69-25L23.69-25Q21.33-25.94 18.83-26.88L18.83-26.88L18.83-26.88Q16.33-27.81 13.96-28.95L13.96-28.95L13.96-28.95Q11.60-30.08 9.73-31.78L9.73-31.78L9.73-31.78Q7.85-33.48 6.72-35.94L6.72-35.94L6.72-35.94Q5.59-38.40 5.59-41.99L5.59-41.99L5.59-43.05L5.59-43.05Q5.59-45.90 6.66-48.40L6.66-48.40L6.66-48.40Q7.73-50.90 9.61-52.77L9.61-52.77L9.61-52.77Q11.48-54.65 14.00-55.72L14.00-55.72L14.00-55.72Q16.52-56.80 19.38-56.80L19.38-56.80L22.97-56.80L22.97-56.80Q25.82-56.80 28.32-55.72L28.32-55.72L28.32-55.72Q30.82-54.65 32.70-52.77L32.70-52.77L32.70-52.77Q34.57-50.90 35.64-48.40L35.64-48.40L35.64-48.40Q36.72-45.90 36.72-43.05L36.72-43.05L36.72-41.60L31.68-40.78L31.68-43.05L31.68-43.05Q31.68-44.92 30.98-46.54L30.98-46.54L30.98-46.54Q30.27-48.16 29.06-49.38L29.06-49.38L29.06-49.38Q27.85-50.59 26.23-51.29L26.23-51.29L26.23-51.29Q24.61-51.99 22.73-51.99L22.73-51.99L19.61-51.99L19.61-51.99Q17.73-51.99 16.11-51.29L16.11-51.29L16.11-51.29Q14.49-50.59 13.26-49.38L13.26-49.38L13.26-49.38Q12.03-48.16 11.33-46.54L11.33-46.54L11.33-46.54Q10.63-44.92 10.63-43.05L10.63-43.05L10.63-41.99L10.63-41.99Q10.63-39.30 11.76-37.46L11.76-37.46L11.76-37.46Q12.89-35.63 14.77-34.32L14.77-34.32L14.77-34.32Q16.64-33.01 19.00-32.05L19.00-32.05L19.00-32.05Q21.37-31.09 23.87-30.10L23.87-30.10L23.87-30.10Q26.37-29.10 28.73-27.91L28.73-27.91L28.73-27.91Q31.09-26.72 32.97-24.98L32.97-24.98L32.97-24.98Q34.84-23.24 35.98-20.74L35.98-20.74L35.98-20.74Q37.11-18.24 37.11-14.65L37.11-14.65" fill="#d70a53" stroke="none" stroke-width="none" transform="translate(-118.26498413085938,21.795715114048555)" style="fill: rgb(215, 10, 83);"></path></g><g class="path" style="opacity: 1; transform-origin: -58.575px 1.79572px; animation: 2.43902s linear -0.749129s infinite normal forwards running blink-5c0426aa-ffe9-4922-b23a-c84bac071a05;"><path d="M73.05-10.98L73.05-10.98L73.05-10.98Q73.05-8.55 72.13-6.41L72.13-6.41L72.13-6.41Q71.21-4.26 69.61-2.66L69.61-2.66L69.61-2.66Q68.01-1.05 65.86-0.14L65.86-0.14L65.86-0.14Q63.71 0.78 61.29 0.78L61.29 0.78L58.09 0.78L58.09 0.78Q55.66 0.78 53.52-0.14L53.52-0.14L53.52-0.14Q51.37-1.05 49.77-2.66L49.77-2.66L49.77-2.66Q48.16-4.26 47.25-6.41L47.25-6.41L47.25-6.41Q46.33-8.55 46.33-10.98L46.33-10.98L46.33-29.02L46.33-29.02Q46.33-31.45 47.25-33.59L47.25-33.59L47.25-33.59Q48.16-35.74 49.77-37.34L49.77-37.34L49.77-37.34Q51.37-38.95 53.52-39.86L53.52-39.86L53.52-39.86Q55.66-40.78 58.09-40.78L58.09-40.78L61.29-40.78L61.29-40.78Q63.71-40.78 65.86-39.86L65.86-39.86L65.86-39.86Q68.01-38.95 69.61-37.34L69.61-37.34L69.61-37.34Q71.21-35.74 72.13-33.59L72.13-33.59L72.13-33.59Q73.05-31.45 73.05-29.02L73.05-29.02L73.05-10.98zM68.24-10.70L68.24-29.30L68.24-29.30Q68.24-30.74 67.70-32.01L67.70-32.01L67.70-32.01Q67.15-33.28 66.21-34.22L66.21-34.22L66.21-34.22Q65.27-35.16 64.00-35.70L64.00-35.70L64.00-35.70Q62.73-36.25 61.29-36.25L61.29-36.25L58.09-36.25L58.09-36.25Q56.64-36.25 55.37-35.70L55.37-35.70L55.37-35.70Q54.10-35.16 53.16-34.22L53.16-34.22L53.16-34.22Q52.23-33.28 51.68-32.01L51.68-32.01L51.68-32.01Q51.13-30.74 51.13-29.30L51.13-29.30L51.13-10.70L51.13-10.70Q51.13-9.26 51.68-7.99L51.68-7.99L51.68-7.99Q52.23-6.72 53.16-5.78L53.16-5.78L53.16-5.78Q54.10-4.84 55.37-4.30L55.37-4.30L55.37-4.30Q56.64-3.75 58.09-3.75L58.09-3.75L61.29-3.75L61.29-3.75Q62.73-3.75 64.00-4.30L64.00-4.30L64.00-4.30Q65.27-4.84 66.21-5.78L66.21-5.78L66.21-5.78Q67.15-6.72 67.70-7.99L67.70-7.99L67.70-7.99Q68.24-9.26 68.24-10.70L68.24-10.70" fill="#d70a53" stroke="none" stroke-width="none" transform="translate(-118.26498413085938,21.795715114048555)" style="fill: rgb(215, 10, 83);"></path></g><g class="path" style="opacity: 1; transform-origin: -22.245px 2.18571px; animation: 2.43902s linear -0.599303s infinite normal forwards running blink-5c0426aa-ffe9-4922-b23a-c84bac071a05;"><path d="M109.38 0L107.77 0L105.12-4.06L105.12-4.06Q103.48-1.84 101.02-0.53L101.02-0.53L101.02-0.53Q98.55 0.78 95.63 0.78L95.63 0.78L94.41 0.78L94.41 0.78Q91.99 0.78 89.84-0.14L89.84-0.14L89.84-0.14Q87.70-1.05 86.09-2.66L86.09-2.66L86.09-2.66Q84.49-4.26 83.57-6.41L83.57-6.41L83.57-6.41Q82.66-8.55 82.66-10.98L82.66-10.98L82.66-40L87.46-40L87.46-10.70L87.46-10.70Q87.46-9.26 88.01-7.99L88.01-7.99L88.01-7.99Q88.55-6.72 89.49-5.78L89.49-5.78L89.49-5.78Q90.43-4.84 91.70-4.30L91.70-4.30L91.70-4.30Q92.97-3.75 94.41-3.75L94.41-3.75L97.62-3.75L97.62-3.75Q99.06-3.75 100.33-4.30L100.33-4.30L100.33-4.30Q101.60-4.84 102.54-5.78L102.54-5.78L102.54-5.78Q103.48-6.72 104.02-7.99L104.02-7.99L104.02-7.99Q104.57-9.26 104.57-10.70L104.57-10.70L104.57-40L109.38-40L109.38 0" fill="#d70a53" stroke="none" stroke-width="none" transform="translate(-118.26498413085938,21.795715114048555)" style="fill: rgb(215, 10, 83);"></path></g><g class="path" style="opacity: 1; transform-origin: 9.00002px 1.40572px; animation: 2.43902s linear -0.449477s infinite normal forwards running blink-5c0426aa-ffe9-4922-b23a-c84bac071a05;"><path d="M135.55-35.43L130.74-35.43L130.74-35.43Q129.30-35.43 128.03-34.88L128.03-34.88L128.03-34.88Q126.76-34.34 125.82-33.40L125.82-33.40L125.82-33.40Q124.88-32.46 124.34-31.19L124.34-31.19L124.34-31.19Q123.79-29.92 123.79-28.48L123.79-28.48L123.79 0L118.98 0L118.98-40L120.59-40L123.20-35.94L123.20-35.94Q124.84-38.16 127.32-39.47L127.32-39.47L127.32-39.47Q129.80-40.78 132.73-40.78L132.73-40.78L135.55-40.78L135.55-35.43" fill="#d70a53" stroke="none" stroke-width="none" transform="translate(-118.26498413085938,21.795715114048555)" style="fill: rgb(215, 10, 83);"></path></g><g class="path" style="opacity: 1; transform-origin: 37.045px 1.79572px; animation: 2.43902s linear -0.299652s infinite normal forwards running blink-5c0426aa-ffe9-4922-b23a-c84bac071a05;"><path d="M168.67 0L167.07 0L164.41-3.98L164.41-3.98Q162.77-1.84 160.31-0.53L160.31-0.53L160.31-0.53Q157.85 0.78 154.92 0.78L154.92 0.78L153.71 0.78L153.71 0.78Q151.29 0.78 149.14-0.14L149.14-0.14L149.14-0.14Q146.99-1.05 145.39-2.66L145.39-2.66L145.39-2.66Q143.79-4.26 142.87-6.41L142.87-6.41L142.87-6.41Q141.95-8.55 141.95-10.98L141.95-10.98L141.95-11.37L141.95-11.37Q141.95-13.79 142.87-15.94L142.87-15.94L142.87-15.94Q143.79-18.09 145.39-19.69L145.39-19.69L145.39-19.69Q146.99-21.29 149.14-22.21L149.14-22.21L149.14-22.21Q151.29-23.13 153.71-23.13L153.71-23.13L163.87-23.13L163.87-29.30L163.87-29.30Q163.87-30.74 163.32-32.01L163.32-32.01L163.32-32.01Q162.77-33.28 161.84-34.22L161.84-34.22L161.84-34.22Q160.90-35.16 159.63-35.70L159.63-35.70L159.63-35.70Q158.36-36.25 156.91-36.25L156.91-36.25L154.10-36.25L154.10-36.25Q152.66-36.25 151.39-35.70L151.39-35.70L151.39-35.70Q150.12-35.16 149.18-34.22L149.18-34.22L149.18-34.22Q148.24-33.28 147.70-32.01L147.70-32.01L147.70-32.01Q147.15-30.74 147.15-29.30L147.15-29.30L147.15-27.85L142.34-28.63L142.34-29.02L142.34-29.02Q142.34-31.45 143.26-33.59L143.26-33.59L143.26-33.59Q144.18-35.74 145.78-37.34L145.78-37.34L145.78-37.34Q147.38-38.95 149.53-39.86L149.53-39.86L149.53-39.86Q151.68-40.78 154.10-40.78L154.10-40.78L156.91-40.78L156.91-40.78Q159.34-40.78 161.48-39.86L161.48-39.86L161.48-39.86Q163.63-38.95 165.23-37.34L165.23-37.34L165.23-37.34Q166.84-35.74 167.75-33.59L167.75-33.59L167.75-33.59Q168.67-31.45 168.67-29.02L168.67-29.02L168.67 0zM163.87-10.70L163.87-19.38L153.71-19.38L153.71-19.38Q152.27-19.38 151.00-18.83L151.00-18.83L151.00-18.83Q149.73-18.28 148.79-17.32L148.79-17.32L148.79-17.32Q147.85-16.37 147.30-15.10L147.30-15.10L147.30-15.10Q146.76-13.83 146.76-12.38L146.76-12.38L146.76-10.70L146.76-10.70Q146.76-9.26 147.30-7.99L147.30-7.99L147.30-7.99Q147.85-6.72 148.79-5.78L148.79-5.78L148.79-5.78Q149.73-4.84 151.00-4.30L151.00-4.30L151.00-4.30Q152.27-3.75 153.71-3.75L153.71-3.75L156.91-3.75L156.91-3.75Q158.36-3.75 159.63-4.30L159.63-4.30L159.63-4.30Q160.90-4.84 161.84-5.78L161.84-5.78L161.84-5.78Q162.77-6.72 163.32-7.99L163.32-7.99L163.32-7.99Q163.87-9.26 163.87-10.70L163.87-10.70" fill="#d70a53" stroke="none" stroke-width="none" transform="translate(-118.26498413085938,21.795715114048555)" style="fill: rgb(215, 10, 83);"></path></g><g class="path" style="opacity: 1; transform-origin: 73.375px -5.82429px; animation: 2.43902s linear -0.149826s infinite normal forwards running blink-5c0426aa-ffe9-4922-b23a-c84bac071a05;"><path d="M205-10.98L205-10.98L205-10.98Q205-8.55 204.08-6.41L204.08-6.41L204.08-6.41Q203.16-4.26 201.56-2.66L201.56-2.66L201.56-2.66Q199.96-1.05 197.81-0.14L197.81-0.14L197.81-0.14Q195.66 0.78 193.24 0.78L193.24 0.78L190.04 0.78L190.04 0.78Q187.62 0.78 185.47-0.14L185.47-0.14L185.47-0.14Q183.32-1.05 181.72-2.66L181.72-2.66L181.72-2.66Q180.12-4.26 179.20-6.41L179.20-6.41L179.20-6.41Q178.28-8.55 178.28-10.98L178.28-10.98L178.28-56.02L183.09-56.02L183.09-36.64L183.09-36.64Q184.73-38.59 187.03-39.69L187.03-39.69L187.03-39.69Q189.34-40.78 192.03-40.78L192.03-40.78L193.24-40.78L193.24-40.78Q195.66-40.78 197.81-39.86L197.81-39.86L197.81-39.86Q199.96-38.95 201.56-37.34L201.56-37.34L201.56-37.34Q203.16-35.74 204.08-33.59L204.08-33.59L204.08-33.59Q205-31.45 205-29.02L205-29.02L205-10.98zM200.20-10.70L200.20-29.30L200.20-29.30Q200.20-30.74 199.65-32.01L199.65-32.01L199.65-32.01Q199.10-33.28 198.16-34.22L198.16-34.22L198.16-34.22Q197.23-35.16 195.96-35.70L195.96-35.70L195.96-35.70Q194.69-36.25 193.24-36.25L193.24-36.25L190.04-36.25L190.04-36.25Q188.59-36.25 187.32-35.70L187.32-35.70L187.32-35.70Q186.05-35.16 185.12-34.22L185.12-34.22L185.12-34.22Q184.18-33.28 183.63-32.01L183.63-32.01L183.63-32.01Q183.09-30.74 183.09-29.30L183.09-29.30L183.09-10.70L183.09-10.70Q183.09-9.26 183.63-7.99L183.63-7.99L183.63-7.99Q184.18-6.72 185.12-5.78L185.12-5.78L185.12-5.78Q186.05-4.84 187.32-4.30L187.32-4.30L187.32-4.30Q188.59-3.75 190.04-3.75L190.04-3.75L193.24-3.75L193.24-3.75Q194.69-3.75 195.96-4.30L195.96-4.30L195.96-4.30Q197.23-4.84 198.16-5.78L198.16-5.78L198.16-5.78Q199.10-6.72 199.65-7.99L199.65-7.99L199.65-7.99Q200.20-9.26 200.20-10.70L200.20-10.70" fill="#d70a53" stroke="none" stroke-width="none" transform="translate(-118.26498413085938,21.795715114048555)" style="fill: rgb(215, 10, 83);"></path></g><g class="path" style="opacity: 1; transform-origin: 109.705px -6.21428px; animation: 2.43902s linear 0s infinite normal forwards running blink-5c0426aa-ffe9-4922-b23a-c84bac071a05;"><path d="M241.33 0L236.52 0L236.52-29.30L236.52-29.30Q236.52-30.74 235.98-32.01L235.98-32.01L235.98-32.01Q235.43-33.28 234.49-34.22L234.49-34.22L234.49-34.22Q233.55-35.16 232.29-35.70L232.29-35.70L232.29-35.70Q231.02-36.25 229.57-36.25L229.57-36.25L226.37-36.25L226.37-36.25Q224.92-36.25 223.65-35.70L223.65-35.70L223.65-35.70Q222.38-35.16 221.45-34.22L221.45-34.22L221.45-34.22Q220.51-33.28 219.96-32.01L219.96-32.01L219.96-32.01Q219.41-30.74 219.41-29.30L219.41-29.30L219.41 0L214.61 0L214.61-56.02L219.41-56.02L219.41-36.64L219.41-36.64Q221.05-38.59 223.36-39.69L223.36-39.69L223.36-39.69Q225.66-40.78 228.36-40.78L228.36-40.78L229.57-40.78L229.57-40.78Q231.99-40.78 234.14-39.86L234.14-39.86L234.14-39.86Q236.29-38.95 237.89-37.34L237.89-37.34L237.89-37.34Q239.49-35.74 240.41-33.59L240.41-33.59L240.41-33.59Q241.33-31.45 241.33-29.02L241.33-29.02L241.33 0" fill="#d70a53" stroke="none" stroke-width="none" transform="translate(-118.26498413085938,21.795715114048555)" style="fill: rgb(215, 10, 83);"></path></g></g>
</g>
</g>
<style id="blink-5c0426aa-ffe9-4922-b23a-c84bac071a05" data-anikit="">@keyframes blink-5c0426aa-ffe9-4922-b23a-c84bac071a05 {
  0% { opacity: 1; }
  49.75% { opacity: 1; }
  50.25% { opacity: 0; }
  99.5% { opacity: 0; }
  100% { opacity: 1; }
}</style></svg>